<?xml version="1.0" encoding="UTF-8"?>
<svg version="1.1" viewBox="0 0 1600 1600" width="1280" height="1280" xmlns="http://www.w3.org/2000/svg">
<path transform="translate(775,148)" d="m0 0h30l23 1 34 3 36 5 35 7 36 9 29 9 26 9 32 13 26 12 28 14 24 14 21 13 19 13 18 13 15 12 11 9 13 11 13 12 10 9 23 23 7 8 11 12 9 11 13 16 14 19 13 19 14 22 14 24 17 33 11 24 13 33 12 36 8 29 8 36 6 38 3 29 2 31v46l-3 43-5 36-6 32-7 30-12 40-11 30-13 31-16 33-13 23-10 17-11 17-13 19-14 19-18 22-12 14-12 13-7 7-7 8-8 8-8 7-17 16-11 9-16 13-20 15-23 16-21 13-24 14-27 14-25 12-34 14-28 10-32 10-40 10-37 7-29 4-33 3-17 1h-56l-38-3-42-6-35-7-48-11-7-1h-25l-19 5-27 11-44 19-37 15-19 7-18 5-6 1h-9l-10-3-9-8-6-12-4-16-4-32-4-54-3-42-2-17-4-16-5-10-7-9-9-10-11-12-14-15-7-8-12-14-11-14-15-20-11-16-13-20-14-24-15-28-15-32-12-30-12-35-10-36-9-42-5-34-3-31-1-16v-65l3-38 6-41 8-38 8-30 9-29 13-34 14-32 14-28 13-23 14-23 13-19 13-18 10-13 13-16 11-13 14-15 12-13 12-12h2v-2l8-7 13-12 11-9 12-10 20-15 18-13 20-13 28-17 32-17 23-11 31-13 30-11 32-10 44-11 38-7 38-5 26-2z" fill="#2676FB"/>
<path transform="translate(426,291)" d="m0 0h7l4 2-1 4-8 6-3 3-2 1v5h3l1-3 7-4 6-5 3 1v4l3 1v2l6-1 2 1v-2l7-1v2l-3 3h-3l-2 4-3 3-4 3 10-3 8-8h2v2l13-1 5-5 5-7 4 3-1 4h-2v2l-8 7 1 5v3l-1 12-1 3 1 4-3 6-4 4 1 6 1 2-1 2h2v2l3-1v2l5-1 3 1 15-1 5-2 24-1 3 1h5l2 1h9l16-4 6-3 5-1 7-1 7 1v-2h13l10 1 4 2-19 3h-9l2 1 12 1 23 2 10 2v2l8-1 9 6-4 1-10-2-4-2-3-2-10 1-3 1 9 1 10 4 4 2 3 3 1 4 3-1v2h11l9 4v2l6 4 5 5 5 7 2 7 4 2v3h-7l-6-2 4 4 2 1 2 5v3l5 2 3 3 10 2 3 5v2h7l2 7 6 9 2 4 4 2 3 6 3 2 3 10 4 9 1 2-4-1-3-4-7-1 3 6 3 5 2 7 1 4-1 2 3 3 1 16 3 7-2 8-7-2-1-2h-2v2h-3v15l6 11-4 6-4 2 1 11 2 6-2 5 5 2 1 3 4 1-2 4 3 4v3h-3l-1 2h-2l-2 4h-14l-7-2-24-4-13-1-4-1h-10l-1 1 16 4 20 6 16 7 19 11 12 8 14 10 19 14 4 2v2l4 1v2l8 4v2l8 4v2l4 2 7 4 1 2 3 1 4 4 4 2v2l4 2 14 10 8 6 3 1v2h3v2l5 2 11 7 3 1v2l6 2 16 7 13 3h12l16-5 13-7 9-6h3v-2h3v-2l13-9h2l1-3h3l1-3 13-10 16-13 4-1 1-3 14-11 4-3h2l1-3 7-5h2l1-3 7-5h2l1-3 4-1v-2l8-6h2l1-3 4-1v-2l10-8 4-1 1-3 7-5h2l1-3 4-1 1-3h3l1-3 4-1 1-3h3l1-3 6-4h2v-2l4-1v-2l14-10 21-12 19-6h15l10 6 4 6 3 7v19l-3 11-8 16-10 17-13 20-18 27-19 28-13 19-15 22-19 28-13 19-15 22-22 32-12 17-13 18-13 16-9 11-18 18-14 11-15 9-15 7-18 5-16 2-18-1-20-4-18-6-16-8-11-6-5-4-3-1v-2l-4-1-16-12-11-8v-2l-4-1-3-3-2-1v-2l-4-2-13-9-3-3-11-8v-2l-5-2-17-13-16-11v-2h-3v-2h-3v-2h-3v-2l-4-1-8-5-14-7-18-5h-25l-5 2-10 3-6 3h-2v2h-3v2h-3v2l-8 4-5 5h-3v2l-5 4h-3l-2 4-4 3h-3l-2 4-4 1-2 4-4 1-2 4-9 7-11 9h-3l-2 4-6 4-5 5h-3l-2 4-4 4h-3l-2 4-4 3h-3l-2 4-8 7-3 1-2 3h-3l-2 4-11 10-3 2h-3l-2 4-10 9-10 8-11 9-15 11-18 10-15 6h-18l-2-1v-2l-4-1-5-8-2-9v-15l4-17 7-16 9-17 4-5 4-8 2-3v-3l-8 3v-3l-2 2-4-1v-7l2-14-2-7-2-2-9-2-4-9-5-2h-3l2 6v3l-6-2-4-1-11-14-2-2-2-10-4-1-5-9-6-12-5-6-1-3-5-4v-2l-5 1v2l4 2 2 5-9-2-7-2-3 3 2 3h7l1 5-13-1-4-3-6-1v-2l-4-2-8-10 1-5-3-6-1-12-3-15-2-4-2-1-2-5-2-1-1 4-4 4-4 1-1 7-4 4-7 2-5-1-1 3h-2l-1 3-4 1-3 1v11h3v3l-4 1v-2h-4l-2-4 1-13-2-4-4-2-1-3 3-4v-5h2l-1-12-4-11-3 10 2 9-3 1-2-9-1-1-1-13-3-6-2-8-2-9v-9l2-5 3-2-1-13-1-16 1-10v-8h-2l-3 10h-1v-13l-1-7h-2l-1-3 3-18 3-10 3-12 7-14 1-13 6-13 5-17 8-20 4-12 4-5 4-17 9-15 6-9 7-10 15-20 7-10 9-12h2l2-4 5-5 6-8 8-10 5-2 2-4 14-9 9-6 4-1v3l9-1 2-3 1-6h2v-2l6-2 8-2 9-5 5-5h2l1-4h2v-4h2l1-7 1-2h7l5-3 1-9-6 4-4-1 8-16 13-13 13-8 5-1v-2l9-2z" fill="#338EFD"/>
<path transform="translate(1221,597)" d="m0 0h1l2 7 3 3v2l4 2 9 16 2 5 1 4 5 8v7l1 4 8 2 6 5 2 3 5 3 2 1 5-3 6 5h8l4 3v2l6 2 6 7 10 10 4 3 4 2 8 11 5 4v2h2l10 13 6 5v2h2v2h2v2l4 2 10 11 7 9 4 6v2l5 2 8 8v2h2v2l4 2 6 10 4 7 5 13 5 10 5 12 1 4v5l4 2 1 3h3l2 1v5h2l1 12v10l-2 11v5l1 1-1 15-2 7-2 21-8 32-11 36-12 32-12 28-15 31-13 23-10 17-11 17-13 19-14 19-18 22-12 14-12 13-7 7-7 8-8 8-8 7-17 16-11 9-16 13-20 15-23 16-21 13-24 14-27 14-25 12-34 14-28 10-32 10-40 10-37 7-29 4-33 3-17 1h-56l-38-3-42-6-35-7-48-11-7-1h-25l-19 5-27 11-44 19-37 15-19 7-18 5-6 1h-9l-10-3-2-3 3-1 1-3h2v-2l8-5 7-4 11-8 3-1v-2l8-7 29-29h2v-2l3-3h2l1-3h2l2-4 8-12 3-9 1-7-4-12-8-11-9-11-7-10-2-5 8-4 14-11 7-2h16l11 2v2l8-1 2 1 7 1 12 1 12 2h12l-1 2 5 1 13 1 9 1 5 1 3 1h9l5-1v-2l19-2 1-4 3-3 6-1 3-1 4 1v-2l26-6 20-7 2-1-1-3 9-3 8-3 16-4 8-3 13-5h3v-2l5-2h3v-2l8-4 1-2 7-1 2-2 6-2 2-4 10-2v-2l8-5 5-2 2-4 9-6h4l1-4 5-4 11-7 4-5 5-2v-2l8-7 11-7 5-4 7-6 6-1 1-3h2v-2l9-6 5-5 8-7h3v-2l4-4 5-2 1-4 6-5 8-11h3v-2l4-1 1-4 5-5 2-3h2v-2l5-1 3-6h2v-3h2l2-5 4-6-2-1h2v-3l5-5 4-5 5-9 6-7h2l-1-3 4-5 3-7 3-6 2-3 1-7 5-5 1-10 1-8-1-5-2-1v-3l-9-3-3-3v-2l-13-1h-7l-9-2v1h-11l-4-2-11-1-1-1-29-3-25-6-4-2 4-1 20 4 18 1 16-2 18-5 19-9 15-10 14-12 15-15 9-11 11-14 13-18 10-14 13-19 11-16 15-22 13-19 19-28 15-22 13-19 19-28 18-27 16-25 9-16 4-8 4-10 2-9z" fill="#1751B6"/>
<path transform="translate(775,148)" d="m0 0h30l23 1 34 3 36 5 35 7 36 9 29 9 26 9 32 13 26 12 28 14 24 14 21 13 19 13 18 13 15 12 11 9 13 11 13 12 10 9 23 23 7 8 11 12 9 11 13 16 14 19 13 19 14 22 14 24 17 33 11 24 13 33 12 36 8 29 8 36 6 38 3 29 2 31v46l-3 43-5 36-6 32h-1l1-17 2-8 1-13-1-3 1-11 1-7v-12l-2-4-1-7h-4l-2-4-3-2-2-9-5-12-5-10-6-16-5-8-5-7-2-1v-2h-2l-7-8-6-4-7-11-10-11-6-7-2-1v-2h-2v-2h-2l-5-5-7-8-4-5v-2h-2l-5-5-8-10-3-3-4-2-6-5-3-5-5-5-5-4-4-2-4-4h-8l-6-5-6 3-3-3-5-3-5-5-3-2-6-1-2-5v-7l-6-9-1-7-6-9-5-9-7-7-1 6h-1l-1-15-6-12-6-4-4-2h-15l-21 7-14 8-10 7-7 5h-2v2l-4 1v2l-8 5-1 2-3 1-6 6-3 1-3 3-5 4-7 5-1 2-5 3-7 6h-2v2l-4 2-3 3-6 5h-2v2l-4 2-3 3-7 5-4 4-6 4-4 4-13 10-7 6-28 22-4 4-3 1-3 3-11 8h-2v2h-3v2l-11 6-5 3-14 7-11 3h-12l-16-4-19-9v-2l-5-1-14-9v-2h-3v-2l-4-1-18-13-7-5v-2l-5-2-3-2v-2l-4-1v-2l-4-1-7-5v-2l-5-2-3-2v-2l-5-2-3-2v-2l-4-1v-2l-4-1-16-12-17-12-17-11-14-8-3-1-1-3 5-1 10 4 21 10v2l6 2 15 8 11 5 15 1 4-5h4l-1-9 1-4v-11l-1-8v-12l2-6v-8l-1-6 3-6h2l1-4 4-10-1-3 1-5 2-13 3 3 1 5-1 4v7h2l2-12v-12l3-3 1-6 1-2-3-7 2-6-2-7 2-2 2 5h3v11l4 7-1-8 1-1v-8l-2-13v-8l-2-3-3-1-2-5-5-5-5-11-2-4-3-21-1-3-4-2-5-12-2-4-3-5 1-3 8 4 4 1 1-2h-2l-3-11-8 1-6-5-2-9-4-1-4-3-2-4-12-2-1-4-2-4-2-3 1-5-4-1-5-5-3-5 1-2-8-2-1-4-2-2-2-4v-3l2-2h6v-3l-6-5-5-3 1-3h2l2-6-1-4-9-3-3-2v-2h-4v-2l-7-1-2-1-7 3h-9l-5-3-4-1-4-3-4-2-5-1h-3l-10 2-8-2-1 2-5-2h-4v-2h-2v-2l-11-2-2-9 4-1h5l1-4h2l-4-8 2-6 10-4 12-2 2 1 2-12-4 2-14 3-3-1 1-8-5 1h-2l-4 2h-8l-6 2h-4v-2l-4-2-4-3v-2l23-5-4-3 15-5v-1h-6l-5 1-15 2v-2l-9-1-5-5v-2l2-1-1-2 14-5 21-3 4-4-3-3-11 1-11 2-1 1h-11v2l-5 2-7 3-10 1-16 3-20 4-20 7-10 4-20 7-11 4-10 4h-3v3l-13 5-7 2-22 11-8 3-9 4-8 7-7 3-8 2v2h-4l2-6 15-11 27-18 28-17 32-17 23-11 31-13 30-11 32-10 44-11 38-7 38-5 26-2z" fill="#2676FB"/>
<path transform="translate(1188,575)" d="m0 0h15l10 6 4 6 3 7v19l-3 11-8 16-10 17-13 20-18 27-19 28-13 19-15 22-19 28-13 19-15 22-22 32-12 17-13 18-13 16-9 11-18 18-14 11-15 9-15 7-18 5-16 2-18-1-20-4-18-6-16-8-11-6-5-4-3-1v-2l-4-1-16-12-11-8v-2l-4-1-3-3-2-1v-2l-4-2-13-9-3-3-11-8v-2l-5-2-17-13-16-11v-2h-3v-2h-3v-2h-3v-2l-4-1-8-5-14-7-18-5h-25l-5 2-10 3-6 3h-2v2h-3v2h-3v2l-8 4-5 5h-3v2l-5 4h-3l-2 4-4 3h-3l-2 4-4 1-2 4-4 1-2 4-9 7-11 9h-3l-2 4-6 4-5 5h-3l-2 4-4 4h-3l-2 4-4 3h-3l-2 4-8 7-3 1-2 3h-3l-2 4-11 10-3 2h-3l-2 4-10 9-10 8-11 9-15 11-18 10-15 6h-18l-2-1v-2l-4-1-5-8-2-9v-15l4-17 7-16 9-17 4-5 4-8 13-20 16-25 18-27 29-44 8-11 12-18 26-38 28-40 14-19 10-13 8-10 15-16 11-10 17-12 16-8 19-5 9-1h10l16 2 21 6 19 8 19 11 12 8 14 10 19 14 4 2v2l4 1v2l8 4v2l8 4v2l4 2 7 4 1 2 3 1 4 4 4 2v2l4 2 14 10 8 6 3 1v2h3v2l5 2 11 7 3 1v2l6 2 16 7 13 3h12l16-5 13-7 9-6h3v-2h3v-2l13-9h2l1-3h3l1-3 13-10 16-13 4-1 1-3 14-11 4-3h2l1-3 7-5h2l1-3 7-5h2l1-3 4-1v-2l8-6h2l1-3 4-1v-2l10-8 4-1 1-3 7-5h2l1-3 4-1 1-3h3l1-3 4-1 1-3h3l1-3 6-4h2v-2l4-1v-2l14-10 21-12z" fill="#FBFBFB"/>
<path transform="translate(1321,825)" d="m0 0h2l2 6 5 2 2 10h2v2l4 2 3 2v2l3 1 4 9 8 5 2 5 3 3 3 9v4h2l7 10 6 9 3 3 2 4 4 2v2h2v2h2l2 5-1 7 2 2 1 9v12l1 6-2 13-4 16-3 9-2 19-1 19-3 17v3l4 1-2 4 2 2 1 6-1 4 4 2-3 9-15 29-16 27-11 17-13 19-14 19-18 22-12 14-12 13-7 7-7 8-8 8-8 7-17 16-11 9-16 13-20 15-23 16-21 13-24 14-27 14-25 12-34 14-28 10-32 10-40 10-37 7-29 4-33 3h-59l-11-1-2-2-17-3-9-2-6-3 3-2h10l6-2 4-2v-3l7-1v-3l6-1-9-5 3-2-4-2-4-1v-6l-6 2-5-5 10-2-2-2 12-4 1-2 9-2v-2l8-2 27-9 10-3 5-3-1-2 19-9 5-3 16-7 5-2h-7v-2l12-5h2l2-4h2v-2l5-3h2l2-6 4-5h2l1-5 2-2v-3l9-5h2v-2l5-3h2v-2l-3-1 2-6 7-3 3-3 7-4 7-7 7-3 13-10 5-4 6-2 1-3 4-3 2-4 5-2 1 2 4-2 1-3 6-2 1-4 9-7 8-6 9-6 6-7 4-1 3-7 5-5 3-6 5-1 2-6 9-10 4-4h2l2-4 6-10 3-3h2v-2h2l1-8 5-2 4-5h3l1-4 3-4h2v-3h2l2-4 4-6 3-3 3-6h2l2-7h2l2-4 5-9 4-4 4-6 4-7 4-4 2-5 5-4h2l2-6 1-4 5-2v-6l3-3 5-10 4-5 4-4 6-8 4-7 1-4h2l2-7 5-4h2l1-7 9-9h2l2-7 5-4 7-8h2l2-4 4-7 7-5h2l2-5h2l1-3 5-4 7-8 5-9 7-10 5-8h2l2-5 5-7 2-4h2l1-4 6-8 2-1 2-6h2v-2h2l1-4 2-5 7-10h2l2-6 6-7 4 1z" fill="#1A4599"/>
<path transform="translate(804,949)" d="m0 0 4 1 7 5 3 1v2l4 1 9 6 22 11 14 5 1 2 23 6 18 2 16 2 7 2 7 1 2 1h10l3-1 10 2h10l7 2v2l5 2v2l7 1 4 10-1 8-1 10-5 5-2 9-6 10-2 5-3 5v2l-5 4-6 9-3 5-6 8h-2v6l-6 9h-2v3h-2l-3 6h-2l-1 2-2-1v2l-3 3-4 5h-2l-1 4-4 1v2h-3l-2 4-7 9-5 4-2 5-4 1-2 3h-2v2l-5 3-6 5-5 5-6 4-3 1v2l-3 3-7 3-6 5-8 6-9 6-5 5h-2v2l-7 5-5 5-8 5-5 4-1 3-7 3-7 5-3 3-9 6h-2v2l-7 3h-3l-2 4-7 3-5 2-3-1-2 4-7 2v2l-8 2v2l-16 6-10 4-16 4-7 3-8 1 2 4-23 8-17 4-9 1v2l-7 1-4 1-2-1-1 3h-2l-1 4-9 2h-10v2l-7 2h-7l-6-2h-7l-10-1-17-2 2-2-17-1-3-1-12-1-7-1-5-1h-5v-2l-19-1h-10l-8 4-11 9-5 3h-3l6 9 12 16 7 9 4 8 2 8-3 12-5 9-7 10-3 3h-2l-1 3h-2v2l-8 7-29 29h-2v2l-11 8-7 5-8 4-3 1v2l-6 5-7-6-6-12-4-16-4-32-4-54-3-42-2-17-4-16-5-10-7-9-9-10-11-12-14-15-7-8-12-14-11-14-15-20-11-16-13-20-14-24-11-20-1-15h-2l-2-6-3-3-2-7-2-5v-3h2l2-5 3-1 3 1 5 10 4 9 4 5 9 3 4 7 4 2 3 5 10 4 5 7 10 6 4 5 8 1v-3l5 4 8 3 7 1 9 6 12 6 4 3 10 5 7 3 9 3 3 2 12 3 4 2h6l2-3 6 2 9-1 4-1 6 4 6 2-1 3h2v-3l9 2 2 4 2 1-1-3 4 1-1 2h6l2 2 8 3 9 2 13 4 11 2h10l6 2v2l4-2h6v3h3v-3l3 1 10-1 16-1 24-6 9-3h4l1-2 12-3 3-1-1-4 11-4 5-2 7-2 7-4 9-3 5-3 13-5 6-4 10-5 5-3 7 3 8-5 9-5 4-3 5-2h3v-2l7-3 5-4 9-3v-2l5-3 4-4h5l2-4 9-7 5-3 2-4h2l2-4 5-6 3-3 2-4h3l1-4 4-1 3-8 4-9 7-1 4-8 3-7 6-6 3-5 8-10 13-13h2v-6l5-2-1-4 3-2-1-4-8-14z" fill="#1F64DD"/>
<path transform="translate(637,200)" d="m0 0 4 4-2 4-16 3-11 2-9 4-1 2h-2l5 6 9 1 1 2 14-2 11-1 2 2-15 5 3 3-6 2-12 3h-6l5 5 3 2v2l9-2 1-1h8l6-3 5 1-1 8 8-1 11-3h3l-1 8-2 4-7 1-9 2-8 3v5 3l2 2v3h-2l-1 4-8 1-1 3 2 1v5l9 1 2 1v2h2v2l5-1 4 2 1-1 8 1 3 1 1-2 6-1h3l6 2 5 2 4 3 5 2 2 1h9l8-3h3v2l5 1v2h4v2l5 2 7 3 2 6-5 5v2l6 2 4 5 2 1-2 4h-6l-2 3 3 3 2 6v2l8 1v3l4 6 1 3 6 2 1 3-1 3 4 4v5l12 2 3 3v2l7 4 3 9 5 4h8l3 9v2h2l-1 3-8-2-3-3v3l4 6 1 4 4 10 5 5 3 21 3 5 4 10 6 7 1 3h3l2 6 1 14 1 7v6l-1 3 1 7-2 1-3-8-1-5 1-7h-3l-2-4-1 3 2 6-2 6 3 7-4 10h-2l1 5v10l-2 9-3 1-1-4v-6l1-3-2-5-2 11-1 6 1 2-4 10-2 4h-2l-2 10 1 2v8l-2 8v14l1 4v11l-1 9v4l-4 1-4 5-15-1-11-5-21-11v-2l-6-2-19-9-9-2-1 2-6-2-19-7-21-5-3-1-14-1v-1l25-1 10 1 7 1 28 5 3 1h14l2-3h2l1-3 3 1-3-6-2-2 3-1v-2l-3-1-4-4-2-1 1-6-3-10 1-6 5-4 2-5-6-10v-13l1-2h3v-2l3-1v3l6 1 2-7-3-7-1-14 1-2-3-1-1-3 1-5-2-1-2-8-2-4-2-5h7l3 3v2h3l-3-3-2-7-3-10-5-5v-3l-5-2-9-14-1-5-6-1-3-6-10-2-6-5-2-1-2-5v-3l-5-2-1-3h5l1 1 7 1-1-3-4-2-2-7-6-9-10-7v-2l-9-3-10-1-3-1-2-3-4-5-5-1-7-3-9-1-2-2 10-2 7 1 4 3 8 1 6 1-8-5h-8v-2l-10-1-36-3-2-2 1-1h9l14-2 1-1-18-1-5-1v2h-12l-4 2-5 1-11 4-10 2h-9l-1-1h-6l-6-1-20 1-7 2-15 1-4-1-5-1v-2h-2l-1-4-1-6 5-5 2-7-1-3 2-14v-3l-1-5 5-4 2-3h2v-2l2-1-1-4-2-1-6 8h-2l-2 4-11 1-2-1v-2l-8 7-2 2-10 3v-3l6-2 3-6h3l1-3 1-1h-6v2h-8l-3-3-2-4-4 2-7 6-3 1-1 2h-3v-5l5-5 8-6 1-3-10-1-8 2h-3v2l-5 2-14 9-11 11-8 16 5-1 5-3-1 10-6 4-7-1-2 9h-2v4h-2l-1 4-5 2-2 4-11 6-12 2v2h-2v6l-3 4-7 1-2-1v-3l-12 7-10 7-6 4-4 4h-2l-2 4-10 12-5 7-4 4h-2l-2 4-8 11-7 9-12 17-4 5-7 10-9 15-4 8-3 14-4 5-4 12-5 13-7 19-3 10-4 8-1 13-8 17-4 16-3 13-1 11h2l2 8v9l3-7h2l1 10-1 15 1 13 1 9-4 5-1 5 1 13 2 4 2 9 2 3 1 13 2 5v5l2-1-2-10 2-5 1-5 2 1 4 11 1 9-1 3h-2l1 5-3 5 5 6 2 2-1 14 1 3h4v2l4-1v-3h-3l-1-6 1-5 2-2 3-1h2l4-6 7 1 5-1 1-3 2-2 1-4 3-3h2l1-2 3-3 1-3 3 1 3 6v2l3 1 2 12 1 4 1 12 3 7-1 4 8 10 3 2v2h7l3 3 12 1v-4l-7 1-1-3-2-1 3-1v-2l-2-1 9 1 10 4-4-6-3-3 4-1h2l5 5 6 9 6 10 4 9 1 3 4 1 3 10 11 13 1 3 8 1h2l-3-5 1-3 4 1 5 2 3 8 9 2 4 5 1 7-2 12v7l4-1h3l-1 2h2l1-2 5-1-1 6-4 6-4 7-6 10-10 21-4 14-2 19h-1v-15h-2v6h-3l-1 4-2 1-2-1 1 5-2-1-1-5-1-25 2-12 3-1 1 3v-20l-1-2-8-2 5 5 1 4h-2l-1-2-3-1v2l3 1 1 7-8-6-3-3v-2l-5 1h-7l-7-8-12-3-1-4 1-1v-5l-7-1-1-9-3-2v-2l-9-3-3-3-8-4-7-1-1 2h-2v-2h-2l-2 7v3l-2 3h-2l-2 8-7 11-2 2-1 6 3 8-2 5-6 4-2 2-5-3v-9l-2 1-1-7-2-4-7-1-3-1v8l-2 1-3-2-1 6h-2v-2h-2l-5-10v-10l-6-9-3-5-1-4-3-1v-3l-4-1-6-10-3-6-2-7-2-2-2-6-5-13-4-15-2-5v-3h-2l-2-5v-14l-5-19-4-16-1-5-2 1-2 18-1 4 2 1-1 3h-5v-39l3-38 6-41 8-38 8-30 9-29 13-34 14-32 14-28 13-23 14-23 13-19 13-18 10-13 13-16 11-13 14-15 12-13 12-12h2v-2l8-7 13-12 11-9 12-10 13-10h2l-1 4h4v-2l12-4 8-6 6-5 6-2 17-7 10-6 10-3 10-4h3v-3l15-6 24-8 13-5 14-5 12-4 24-5 16-2 8-2 2-2h4v-2l11-1 4-2 14-1z" fill="#2882FE"/>
<path transform="translate(1e3 185)" d="m0 0 9 2 31 12 23 10 25 12 25 13 27 16 30 20 18 13 15 12 11 9 13 11 13 12 10 9 23 23 7 8 11 12 9 11 13 16 14 19 13 19 14 22 14 24 17 33 11 24 13 33 12 36 8 29 8 36 6 38-1 4-5-9-1-3-7-1-1 1-9-1-10-3-5-5-5-3-18-14-15-15-8-10-10-12v-2h-2l-8-11-10-14-7-10-12-18-7-8-7-11-3-3v-2h-2l-8-12-8-10-7-8-9-10-18-18-5-6-5-3-6-7-10-6-13-10-5-1-11-5-11-1-5-1-3 1-2-1h-9l-8-2-1 3-4-1 1-3-4-3 1-2h-3v-3l-3-2 1-3-3-1 1-3-3-2 1-1-7-3-12-4-2-2-15-5h-7l-3-3 2-3-5-2-5-4-1-3 2-4-4-4-6-14-2-6-3-17-1-7-3-3-2-11-1-5-3-4v-11l2-9v-6l-3-9-5-20-8-18-4-6-1-5-7-13-11-22v-4l-1-7-4-1 2-5 3-2h6l2-3 5 1v-2l-4-2v-3l-6-1-4-3-6-2-8-4z" fill="#507FE9"/>
<path transform="translate(1151,469)" d="m0 0h6l4 1h7l4 1 4-1 10 2 4 1 12 5 4 1 16 12 8 5 6 7 5 3 12 13 9 8 8 10 8 8 16 22v2h2l8 11 7 10 6 7 8 13 7 9 8 12 10 13v2h2l7 9 11 13 7 8 11 11 10 7 7 6 6 3 2 4 10 2 9 2 1-2 7 1 4 8 3 5 2 13 2 24 1 19v46l-3 43-5 36-6 32h-1l1-17 2-8 1-13-1-3 1-11 1-7v-12l-2-4-1-7h-4l-2-4-3-2-2-9-5-12-5-10-6-16-5-8-5-7-2-1v-2h-2l-7-8-6-4-7-11-10-11-6-7-2-1v-2h-2v-2h-2l-5-5-7-8-4-5v-2h-2l-5-5-8-10-3-3-4-2-6-5-3-5-5-5-5-4-4-2-4-4h-8l-6-5-6 3-3-3-5-3-5-5-3-2-6-1-2-5v-7l-6-9-1-7-6-9-5-9-7-7-1 6h-1l-1-15-6-12-6-4-4-2h-15l-13 4-8-1-11 4-5 3-5 2-4 4-5 3-6 4h-2l-1 2-4 4h-3v2h-3v2l-4 1v2l-12 8-10 8-8 6-7 5-9 5h-2l-2 4-12 8-3 3-11 6-10 7-14 10-13 8-10 6-7 5-12 6-10 7-4 2h-7l-8 1-1-3-3-2 3-3 1-2-4-2-1-3 3-4-2-7 5-4v-5h-2l1-4 4-5-1-4 5-21 5-8 3 1 1-4-2-1 1-4-2-1 3-11 4-6 2-7 5-5 2-1 4-9 3-8 4-10 4-6 1-4 6-3 5-9h2l2-6 4-9 1-3h2l1-4 5-1 3-6 5-1-3-4 1-3v-3h4l-2-4 1-5 1-4h2v-2l-3-1 7-14h18l1-2 6 2 2-2 4 2 4-2h3l4 2h7l10 3h7l5 2 11 2 4-4h5l6-5 7-2 3-5 6-3 4 1z" fill="#1F64DD"/>
<path transform="translate(1198,585)" d="m0 0h7l4 2 4 5 5 15v-15l2 2v19l-3 11-8 16-10 17-13 20-18 27-19 28-13 19-15 22-19 28-13 19-15 22-22 32-12 17-13 18-13 16-9 11-18 18-14 11-15 9-15 7-18 5-16 2-18-1-20-4-18-6-7-3-1-3-4-3v-2h-2l1-3 9 1 12 2 7 1h11l18-5 10-3 20-9 14-10 5-4h2l2-4 4-5 7-14h2l2-10h2l3-11 9-19 3-10 4-8 4-7 1-5h2l9-18 1-3h2l2-4 5-8 4-7 3-5 2-5 6-5 4-10 4-5 4-3 3-8 2-7 3-2 2-7 6-11 3-1 3-10 6-9 6-8 7-8 4-4 4-7 14-15 7-8 7-9 3-1v-2l5-5 3-1 2-4 9-9 2-4h2l2-4 6-7 1-3h2l1-3 5-5 13-11h3l1-3h3l1-2 5-3 8-3z" fill="#BDBEC0"/>
<path transform="translate(1115,234)" d="m0 0 5 2 24 14 30 20 18 13 15 12 11 9 13 11 13 12 10 9 23 23 7 8 11 12 9 11 13 16 14 19 13 19 14 22 14 24 17 33 11 24 13 33 12 36 5 17v3l-3-1v-3h-2l-2-3-8-3-1 3-5 1-7-2-5-3-9-5-5-6-5-4-6-8-10-14-11-16-6-9-7-11-2-5h-2l-6-9v-2h-2l-13-17-6-8-10-14-9-11-8-10-7-8-9-10-4-5-6-4-7-8-5-6-5-5-6-5v-2h-2v-2h-2l-7-8-12-12-8-7-14-14v-2l-8-4-3-5-6-5-4-6v-2h-2l-4-6-12-14-9-12-7-10-4-4-8-14-7-12-5-12-2-9v-7l5-5 15-2 1-3-4-2-3-3-2-4-2-1z" fill="#7CA2F9"/>
<path transform="translate(1216,303)" d="m0 0 8 6 10 9 8 7 13 12 22 22 7 8 11 12 9 11 13 16 14 19 13 19 14 22 14 24 17 33 11 24 3 9h-7l-2-2-9 2-4 2-6-4-6-5-5-4-11-16-10-14-9-13v-2l-4-2-12-17-5-7-1-3-4-4-10-14-10-13-10-12-8-11-11-13-21-28-7-9-1-4-6-8-7-13v-6l3-5 4-1 10 4 2 1v-6l-3-6v-2l-5-1-5-6v-2h-2l-5-7z" fill="#9DB3E7"/>
<path transform="translate(1141,328)" d="m0 0 4 4 18 22v2h2l7 10 5 5 2 3 7 4 7 8 8 8 8 7 18 18v2h2v2h2l5 5 4 5 18 18 6 5 7 8 9 10 4 6 6 7 9 11 7 10 18 24 2 4h2l6 9v2h2l7 11 6 9 3 5 11 16 10 14 8 10 6 5 4 4 10 5 3 2 8 1 3-3 5 1 5 3v2h2l1 3 3 2 3 14-5-2-10 2-6 1 1 3-10 1-17-8-8-5-5-6-5-5-7-8-9-12-6-9-4-8-3-5-6-9-7-11-3-5-14-20-3-4v-3l-3-3v-2h-2l-6-9-3-5-8-10-10-13-9-11-7-9-2-4-12-13-7-7v-2l-4-3-3-5-7-7-6-7-3-3v-2h-2l-7-8-6-7v-2l-3-1v-2l-3-1v-2l-4-2v-2l-3-1-7-8-4-5-6-8-11-15-2-5-9-13-7-11z" fill="#6B8DDE"/>
<path transform="translate(650,860)" d="m0 0h10l6 2v2l6 3v3h-6l5 4 12 7 2 3v5l4 4v3l-6 3-5 5-7 2-8 5-8 3-1 2h-2v2l-6 1 1 4-3 4-3 1-3 5-17 4-12 4-4 3h-3l-1 2-11 3-5 3-9 2-14-1-4-4v-5-3l-4-3 2-6 5-5 4-5 4-4h2l2-4 8-7 6-7h2l2-4 5-4 4-5 5-5 13-10 6-7 5-2 8-1h8z" fill="#2781FE"/>
<path transform="translate(1205,649)" d="m0 0 1 2-1 3h-2l1 4-2 2-2 6-4 8-4 9-7 16-8 16-7 12-5 9-13 21-9 13-13 19-20 30-5 8h-2l-2 5-7 10-8 12-12 16-7 11-6 8h-2l-2 5-6 8h-2l-1 4h-2l-3 6h-2l-2 4-5 7h-2l-2 4-2 3h-2l-1 3h-2l-1 3-7 6h-2l-1 3-9 7-12 7h-3l-1 2-10 6-13 8-13 6-13 4-9 2h-4v-2l18-5 19-9 15-10 14-12 15-15 9-11 11-14 13-18 10-14 13-19 11-16 15-22 13-19 19-28 15-22 13-19 19-28 18-27 16-25z" fill="#1A459A"/>
<path transform="translate(1169,600)" d="m0 0v3l-4 4h-2l-2 5-3 1-2 4-24 28-11 14-13 16-10 16-9 14-7 11-11 22-8 14-6 12-6 8-6 12-3 7-9 20-9 14-3 3-7 14-4 5-4 9-4 7-9 17-6 10-5 10-4 7-7 13-12 13-5 5-9 7-13 8-12 6-10 4-28 7h-9l-5-2v-1h11l18-5 10-3 20-9 14-10 5-4h2l2-4 4-5 7-14h2l2-10h2l3-11 9-19 3-10 4-8 4-7 1-5h2l9-18 1-3h2l2-4 5-8 4-7 3-5 2-5 6-5 4-10 4-5 4-3 3-8 2-7 3-2 2-7 6-11 3-1 3-10 6-9 6-8 7-8 4-4 4-7 14-15 7-8 7-9 3-1v-2l5-5 3-1 2-4 9-9 2-4h2l2-4 6-7 1-3h2l1-3 5-5z" fill="#C1C6CC"/>
<path transform="translate(1204,641)" d="m0 0 4 1-11 18-11 17-18 27-19 28-13 19-15 22-19 28-13 19-15 22-22 32-12 17-13 18-13 16-9 11-18 18-14 11-15 9-15 7-18 5-16 2-18-1-20-4v-1h9l4-1v-2l14-1 13-1 18-4 11-4 10-5 5-4 9-5 11-9h2v-2h2v-2l8-7 11-12 2-3h2l2-4 7-7 3-5 6-5 6-8 11-15 8-11 1-2h2l2-6 7-8 10-16 4-4 3-6 3-3 4-7 4-5 2-4h2l2-5 2-4h2l2-4 7-10 8-11 9-13 7-9 4-7 7-9 10-14 5-8h2l2-5 12-17 18-27 7-11 1-2h2v-3z" fill="#96A2C3"/>
<path transform="translate(627,839)" d="m0 0h15l15 3 5 3 2 6-8-1h-25l-5 2-10 3-6 3h-2v2h-3v2h-3v2l-8 4-5 5h-3v2l-5 4h-3l-2 4-4 3h-3l-2 4-4 1-2 4-4 1-2 4-9 7-11 9h-3l-2 4-6 4-5 5h-3l-2 4-4 4h-3l-2 4-4 3h-3l-2 4-8 7-3 1-2 3h-3l-2 4-11 10-3 2h-3l-2 4-10 9-10 8-11 9-15 11-18 10-15 6h-18l-2-1v-2h13l12-6 16-12 30-26 10-9 11-9 11-10 11-9 13-11 11-9 14-12 16-13 13-11 11-9 16-13 17-13 19-11 8-4z" fill="#93A1C4"/>
<path transform="translate(511,1405)" d="m0 0h12l9 2v2l10 1 10 2 6 4 2 5-3 5h-2v2l-21 7-63 27-37 15-19 7-18 5-6 1h-9v-2l5-2 3-1 1-3 11-6 5-1v-2h3v-2l6-3 6-4h3v-2l10-6 7-5 6-3h2v-2l6-3 10-9 6-4 4-3h2v-2l7-5 7-4 8-7 5-3 2 1z" fill="#1B469A"/>
<path transform="translate(340,1304)" d="m0 0h2l2 9 1 5 3 3-1 5-3 3h5l1 4 2 5h3l5-1 3-1h7l3 1 3 5 7 6 3 10v13l-4 16-5 16-4 10h-2v-4l-3 3-2-8h-2l-1-3-3 1-2 5-2 8v7l2 10-2 5-2 8h-2l-4-37-5-73-2-23z" fill="#2776FB"/>
<path transform="translate(631,849)" d="m0 0h25v2l-15 1-16 4-16 8-11 7-16 12-10 8-8 7h-2v2l-7 5h-2l-1 3h-2v2l-14 11-11 10-7 6h-2l-1 3h-2l-1 3h-2l-1 3-7 5-5 6-5 4-4 5h-2l-1 3-3 3h-2l-2 4-3 3h-2l-2 4-4 2-2 4-3 1v2h-2v2l-5 4-5 6-8 7-3 1-1 3-7 6-5 5-12 10-12 6-7 2h-7l-8-5-5-4-5-1v-1l13-3 16-7 17-10 13-10 11-9 13-11 7-6 1-2 7-4 11-10 1-2 3-1 2-3 5-3 7-6 1-2 7-4 2-3 5-3 4-5 6-3 3-4 5-3 2-3 7-4 10-9 7-5 1-2 5-3 1-2 5-3 1-2 7-4 2-3 5-3 3-1v-2l5-3h2l1-3 6-3h2v-2h3v-2h3v-2l8-4 10-3z" fill="#2064DC"/>
<path transform="translate(1064,209)" d="m0 0 5 1 23 11 23 12v3l4 2 3 5 4 3-1 4-15 2-4 4v7l3 12 8 16 7 12-1 2-5-4h-2l-6-7-4-4-15-12-2 1-2-5-5-2-7-8-8-15-3-3v-8l4-5 5-4 4-4-2-4-3-4v-2h-2v-2l-4-2z" fill="#348EFD"/>
<path transform="translate(627,839)" d="m0 0h15l15 3 5 3 2 6-13-2-2-1h-30l-13 4-17 9-12 9-13 10-8 7-13 10h-2v2l-9 7-17 14-6 5h-2v2l-18 14-4 4-4 3h-2v2l-10 8-13 11-11 9-14 12-11 9-13 11-13 10-13 9-5 2h-13v-1l13-2 13-8 12-9 30-26 10-9 11-9 11-10 11-9 13-11 11-9 14-12 16-13 13-11 11-9 16-13 17-13 19-11 8-4z" fill="#BEC0C2"/>
<path transform="translate(233,444)" d="m0 0h1v9l-8 15-5 8-9 13-1 2-1 9-3 4h-2l-2 5-4 6-1 4-10 19-1 4-4 8-3 1v6l-5 9-4 11-2 4-2 10-4 10-4 6-2 4-1 7-1 2-1 9-2 4-4 16-5 14-2 3-1 11-3 3 1-10 7-30 9-31 9-27 12-30 12-27 13-26 13-23 14-23z" fill="#378FFD"/>
<path transform="translate(345,316)" d="m0 0 6 1 1 3h-3l-1 8-4 6-6 6h-2l-1 3h-2l-3 6h-2v3l-2 1 2 2-5 4-5 5h-4l-4 2-1 2-9 1-4 5h-3v-2l4-4 6-7 1-5 7-8 14-14h2v-2l8-7z" fill="#2877FB"/>
<path transform="translate(477,963)" d="m0 0h3l-1 3-11 9-10 9-12 10-8 7-9 7-13 10-12 8-11 4-7 1 2-3 16-8 15-9 10-8 11-9 13-11 7-6 1-2 7-4z" fill="#1955BE"/>
<path transform="translate(424,1007)" d="m0 0 3 1-4 5-13 9-6 4-11 4-7 1 2-3 16-8 15-9z" fill="#194FB2"/>
<path transform="translate(379,288)" d="m0 0 4 2 1 3-3 6-8 5h-5l-6 7h-1v-5l6-5 5-5z" fill="#2676FC"/>
<path transform="translate(355,1367)" d="m0 0 3 1 2 5v11l2 3-2 1v6l-5-5-2-7-2-4z" fill="#1F64DD"/>
<path transform="translate(125,822)" d="m0 0 2 3 5 10-2 7-3 8h-1l-1-16z" fill="#3287FE"/>
<path transform="translate(642,840)" d="m0 0 12 1 8 4 2 6-8-1-6-7-8-2z" fill="#BEC3CB"/>
<path transform="translate(340,1304)" d="m0 0h2l2 9 1 5 3 3-1 5-4 3z" fill="#317BFA"/>
<path transform="translate(1198,585)" d="m0 0h7v2l-13 3-8 3-5 1 1-2 5-3 8-3z" fill="#C1C6CC"/>
<path transform="translate(1442,904)" d="m0 0h1v7l-5 25h-1l1-17 2-8z" fill="#3872DA"/>
<path transform="translate(399,1023)" d="m0 0 2 1v3l-8 3-7 1 2-3z" fill="#1853BA"/>
<path transform="translate(388,1021)" d="m0 0m-2 1h2l-2 4-10 5h-13v-1l13-2z" fill="#BDC0C4"/>
<path transform="translate(477,963)" d="m0 0h3l-1 3-11 9h-3v-2l11-9z" fill="#1956C2"/>
<path transform="translate(248,423)" d="m0 0 2 2-1 4-3 3-4-1z" fill="#398FFD"/>
<path transform="translate(936,982)" d="m0 0 3 1-1 2-9 2h-4v-2z" fill="#1A4BA6"/>
</svg>
